{"glyphs":{"0":{"ha":944,"x_min":0,"x_max":0,"o":"m 756 667 l 722 700 l 722 833 l 222 833 l 222 700 l 189 667 l 56 667 l 56 167 l 189 167 l 222 133 l 222 0 l 722 0 l 722 133 l 756 167 l 889 167 l 889 667 z m 722 167 l 222 167 l 222 667 l 722 667 z m 389 333 l 556 333 l 556 500 l 389 500 z "},"1":{"ha":778,"x_min":0,"x_max":0,"o":"m 556 167 l 556 833 l 389 833 l 322 833 l 261 833 l 156 833 l 56 833 l 56 667 l 156 667 l 289 800 l 389 800 l 389 167 l 56 167 l 56 0 l 722 0 l 722 167 z "},"2":{"ha":944,"x_min":0,"x_max":0,"o":"m 222 333 l 722 333 l 889 500 l 889 833 l 56 833 l 56 667 l 489 667 l 622 800 l 722 800 l 722 500 l 56 500 l 56 0 l 889 0 l 889 167 l 456 167 l 322 33 l 222 33 z "},"3":{"ha":944,"x_min":0,"x_max":0,"o":"m 889 833 l 56 833 l 56 667 l 489 667 l 622 800 l 722 800 l 722 533 l 689 500 l 222 500 l 222 333 l 489 333 l 622 467 l 722 467 l 722 33 l 622 33 l 489 167 l 56 167 l 56 0 l 889 0 z "},"4":{"ha":944,"x_min":0,"x_max":0,"o":"m 889 833 l 722 833 l 722 400 l 689 367 l 622 367 l 489 500 l 89 500 l 89 533 l 222 667 l 222 833 l 56 833 l 56 333 l 722 333 l 722 0 l 889 0 z "},"5":{"ha":944,"x_min":0,"x_max":0,"o":"m 222 500 l 222 800 l 322 800 l 456 667 l 622 667 l 889 667 l 889 833 l 585 833 l 456 833 l 350 833 l 289 833 l 222 833 l 56 833 l 56 500 l 56 333 l 722 333 l 722 67 l 689 33 l 622 33 l 489 167 l 360 167 l 322 167 l 56 167 l 56 0 l 322 0 l 360 0 l 489 0 l 594 0 l 656 0 l 722 0 l 889 0 l 889 333 l 889 500 z "},"6":{"ha":944,"x_min":0,"x_max":0,"o":"m 889 667 l 889 833 l 56 833 l 56 167 l 189 167 l 222 133 l 222 0 l 722 0 l 889 167 l 889 500 l 222 500 l 222 667 z m 256 467 l 322 467 l 456 333 l 722 333 l 722 167 l 222 167 l 222 433 z "},"7":{"ha":944,"x_min":0,"x_max":0,"o":"m 722 833 l 656 833 l 594 833 l 489 833 l 360 833 l 322 833 l 56 833 l 56 667 l 322 667 l 360 667 l 489 667 l 622 800 l 722 800 l 722 667 l 722 0 l 889 0 l 889 667 z "},"8":{"ha":944,"x_min":0,"x_max":0,"o":"m 889 500 l 889 833 l 222 833 l 222 700 l 189 667 l 56 667 l 56 500 l 222 500 l 222 333 l 56 333 l 56 0 l 722 0 l 889 167 l 889 333 l 722 333 l 722 500 z m 722 167 l 222 167 l 222 300 l 256 333 l 689 333 l 722 300 z m 689 500 l 256 500 l 222 533 l 222 667 l 722 667 l 722 533 z "},"9":{"ha":944,"x_min":0,"x_max":0,"o":"m 722 833 l 222 833 l 222 700 l 189 667 l 56 667 l 56 333 l 722 333 l 722 167 l 56 167 l 56 0 l 889 0 l 889 667 z m 722 400 l 689 367 l 622 367 l 489 500 l 222 500 l 222 667 l 722 667 z "},"]":{"ha":694,"x_min":0,"x_max":0,"o":"m 69 0 l 625 0 l 625 740 l 69 740 z m 139 69 l 139 671 l 556 671 l 556 69 z "},"^":{"ha":694,"x_min":0,"x_max":0,"o":"m 69 0 l 625 0 l 625 740 l 69 740 z m 139 69 l 139 671 l 556 671 l 556 69 z "},"}":{"ha":694,"x_min":0,"x_max":0,"o":"m 69 0 l 625 0 l 625 740 l 69 740 z m 139 69 l 139 671 l 556 671 l 556 69 z "},"‚":{"ha":694,"x_min":0,"x_max":0,"o":"m 69 0 l 625 0 l 625 740 l 69 740 z m 139 69 l 139 671 l 556 671 l 556 69 z "},"‛":{"ha":694,"x_min":0,"x_max":0,"o":"m 69 0 l 625 0 l 625 740 l 69 740 z m 139 69 l 139 671 l 556 671 l 556 69 z "}," ":{"ha":278,"x_min":0,"x_max":0,"o":""},"!":{"ha":278,"x_min":0,"x_max":0,"o":"m 56 333 l 222 333 l 222 833 l 56 833 z m 56 0 l 222 0 l 222 167 l 56 167 z "},"\"":{"ha":486,"x_min":0,"x_max":0,"o":"m 431 833 l 264 833 l 264 667 l 431 500 z m 222 833 l 56 833 l 56 667 l 222 500 z "},"#":{"ha":944,"x_min":0,"x_max":0,"o":"m 889 500 l 889 667 l 722 667 l 722 833 l 556 833 l 556 667 l 389 667 l 389 833 l 222 833 l 222 667 l 56 667 l 56 500 l 222 500 l 222 333 l 56 333 l 56 167 l 222 167 l 222 0 l 389 0 l 389 167 l 556 167 l 556 0 l 722 0 l 722 167 l 889 167 l 889 333 l 722 333 l 722 500 z m 556 333 l 389 333 l 389 500 l 556 500 z "},"$":{"ha":943,"x_min":0,"x_max":0,"o":"m 888 667 l 888 833 l 572 833 l 572 1000 l 406 1000 l 406 833 l 222 833 l 222 700 l 189 667 l 56 667 l 56 500 l 222 333 l 406 333 l 406 167 l 56 167 l 56 0 l 406 0 l 406 -167 l 572 -167 l 572 0 l 722 0 l 722 133 l 756 167 l 889 167 l 889 333 l 722 500 l 572 500 l 572 667 z m 406 450 l 322 367 l 256 367 l 222 400 l 222 667 l 406 667 z m 722 333 l 722 167 l 572 167 l 572 333 z "},"%":{"ha":944,"x_min":0,"x_max":0,"o":"m 722 833 l 722 500 l 222 500 l 56 333 l 56 0 l 222 0 l 222 333 l 722 333 l 889 500 l 889 833 z m 206 667 l 372 667 l 372 833 l 206 833 z m 556 0 l 722 0 l 722 167 l 556 167 z "},"&":{"ha":944,"x_min":0,"x_max":0,"o":"m 889 667 l 889 833 l 222 833 l 222 700 l 189 667 l 56 667 l 56 450 l 89 417 l 56 383 l 56 167 l 189 167 l 222 133 l 222 0 l 889 0 l 889 500 l 722 500 l 722 367 l 622 367 l 489 500 l 222 500 l 222 667 z m 689 333 l 722 300 l 722 167 l 222 167 l 222 333 z "},"'":{"ha":278,"x_min":0,"x_max":0,"o":"m 56 667 l 222 500 l 222 833 l 56 833 z "},"(":{"ha":444,"x_min":0,"x_max":0,"o":"m 222 667 l 389 667 l 389 833 l 222 833 l 56 667 l 56 167 l 222 0 l 389 0 l 389 167 l 222 167 z "},")":{"ha":444,"x_min":0,"x_max":0,"o":"m 389 667 l 222 833 l 56 833 l 56 667 l 222 667 l 222 167 l 56 167 l 56 0 l 222 0 l 389 167 z "},"*":{"ha":610,"x_min":0,"x_max":0,"o":"m 556 333 l 556 500 l 468 500 l 519 569 l 385 668 l 306 558 l 226 668 l 92 569 l 142 500 l 56 500 l 56 333 l 142 333 l 92 264 l 226 165 l 306 275 l 385 165 l 519 264 l 468 333 z "},"+":{"ha":611,"x_min":0,"x_max":0,"o":"m 556 500 l 389 500 l 389 667 l 222 667 l 222 500 l 56 500 l 56 333 l 222 333 l 222 167 l 389 167 l 389 333 l 556 333 z "},",":{"ha":278,"x_min":0,"x_max":0,"o":"m 222 167 l 56 167 l 56 0 l 222 -167 z "},"-":{"ha":611,"x_min":0,"x_max":0,"o":"m 56 333 l 556 333 l 556 500 l 56 500 z "},".":{"ha":278,"x_min":0,"x_max":0,"o":"m 56 0 l 222 0 l 222 167 l 56 167 z "},"/":{"ha":818,"x_min":0,"x_max":0,"o":"m 56 131 l 174 13 l 763 603 l 644 721 z "},":":{"ha":278,"x_min":0,"x_max":0,"o":"m 56 333 l 222 333 l 222 500 l 56 500 z m 56 0 l 222 0 l 222 167 l 56 167 z "},";":{"ha":278,"x_min":0,"x_max":0,"o":"m 56 333 l 222 333 l 222 500 l 56 500 z m 222 167 l 56 167 l 56 0 l 222 -167 z "},"<":{"ha":464,"x_min":0,"x_max":0,"o":"m 410 603 l 292 721 l 56 485 l 56 249 l 292 13 l 410 131 l 174 367 z "},"=":{"ha":611,"x_min":0,"x_max":0,"o":"m 56 500 l 556 500 l 556 667 l 56 667 z m 56 167 l 556 167 l 556 333 l 56 333 z "},">":{"ha":464,"x_min":0,"x_max":0,"o":"m 174 721 l 56 603 l 292 367 l 56 131 l 174 13 l 410 249 l 410 485 z "},"?":{"ha":778,"x_min":0,"x_max":0,"o":"m 222 0 l 389 0 l 389 167 l 222 167 z m 722 833 l 56 833 l 56 667 l 322 667 l 456 800 l 556 800 l 556 500 l 222 500 l 222 333 l 556 333 l 722 500 z "},"@":{"ha":1028,"x_min":0,"x_max":0,"o":"m 972 833 l 806 833 l 806 733 l 772 700 l 690 700 l 557 833 l 56 833 l 56 667 l 806 667 l 806 167 l 722 167 l 722 583 l 556 583 l 556 500 l 222 500 l 56 333 l 56 167 l 222 0 l 556 0 l 556 167 l 222 167 l 222 333 l 389 333 l 522 467 l 556 467 l 556 168 l 722 0 l 806 0 l 806 133 l 839 167 l 972 167 z "},"A":{"ha":944,"x_min":0,"x_max":0,"o":"m 756 667 l 722 700 l 722 833 l 222 833 l 222 700 l 189 667 l 56 667 l 56 0 l 222 0 l 222 300 l 256 333 l 689 333 l 722 300 l 722 0 l 889 0 l 889 667 z m 722 500 l 456 500 l 322 367 l 222 367 l 222 667 l 722 667 z "},"B":{"ha":944,"x_min":0,"x_max":0,"o":"m 756 500 l 889 500 l 889 667 l 722 833 l 222 833 l 222 700 l 189 667 l 56 667 l 56 167 l 189 167 l 222 133 l 222 0 l 722 0 l 889 167 l 889 333 l 756 333 l 722 367 l 722 467 z m 722 167 l 222 167 l 222 300 l 256 333 l 722 333 z m 456 500 l 322 367 l 222 367 l 222 667 l 722 667 l 722 500 z "},"C":{"ha":944,"x_min":0,"x_max":0,"o":"m 889 500 l 889 667 l 722 833 l 222 833 l 222 700 l 189 667 l 56 667 l 56 167 l 189 167 l 222 133 l 222 0 l 722 0 l 889 167 l 722 167 l 701 167 l 222 167 l 222 667 l 722 667 l 722 500 z "},"D":{"ha":944,"x_min":0,"x_max":0,"o":"m 722 833 l 56 833 l 56 0 l 722 0 l 722 133 l 756 167 l 889 167 l 889 667 z m 722 167 l 122 167 l 89 200 l 89 267 l 222 400 l 222 667 l 722 667 z "},"E":{"ha":944,"x_min":0,"x_max":0,"o":"m 889 667 l 889 833 l 222 833 l 222 700 l 189 667 l 56 667 l 56 167 l 192 167 l 222 136 l 222 0 l 889 0 l 889 167 l 225 167 l 222 167 l 222 300 l 256 333 l 289 333 l 350 333 l 456 333 l 722 333 l 722 500 l 456 500 l 322 367 l 222 367 l 222 667 z "},"F":{"ha":944,"x_min":0,"x_max":0,"o":"m 889 667 l 889 833 l 222 833 l 222 700 l 189 667 l 56 667 l 56 0 l 222 0 l 222 300 l 256 333 l 289 333 l 350 333 l 456 333 l 722 333 l 722 500 l 456 500 l 322 367 l 222 367 l 222 667 z "},"G":{"ha":944,"x_min":0,"x_max":0,"o":"m 322 500 l 322 333 l 489 333 l 622 467 l 689 467 l 722 433 l 722 167 l 222 167 l 222 667 l 889 667 l 722 833 l 222 833 l 222 700 l 189 667 l 56 667 l 56 167 l 189 167 l 222 133 l 222 0 l 722 0 l 889 167 l 889 500 z "},"H":{"ha":944,"x_min":0,"x_max":0,"o":"m 889 833 l 722 833 l 722 500 l 456 500 l 322 367 l 222 367 l 222 833 l 56 833 l 56 0 l 222 0 l 222 300 l 256 333 l 689 333 l 722 300 l 722 0 l 889 0 z "},"I":{"ha":944,"x_min":0,"x_max":0,"o":"m 589 667 l 889 667 l 889 833 l 556 833 l 556 667 l 389 667 l 389 833 l 56 833 l 56 667 l 356 667 l 389 633 l 389 200 l 356 167 l 56 167 l 56 0 l 389 0 l 389 167 l 556 167 l 556 0 l 889 0 l 889 167 l 589 167 l 556 200 l 556 633 z "},"J":{"ha":944,"x_min":0,"x_max":0,"o":"m 56 833 l 56 667 l 522 667 l 522 567 l 389 433 l 389 167 l 222 167 l 222 333 l 56 333 l 56 167 l 189 167 l 222 133 l 222 0 l 389 0 l 556 167 l 556 433 l 556 539 l 556 600 l 556 633 l 589 667 l 889 667 l 889 833 z "},"K":{"ha":944,"x_min":0,"x_max":0,"o":"m 722 500 l 889 667 l 889 833 l 722 833 l 722 533 l 689 500 l 456 500 l 322 367 l 222 367 l 222 833 l 56 833 l 56 0 l 222 0 l 222 300 l 256 333 l 689 333 l 722 300 l 722 0 l 889 0 l 889 167 l 722 333 z "},"L":{"ha":944,"x_min":0,"x_max":0,"o":"m 456 167 l 322 33 l 256 33 l 222 67 l 222 833 l 56 833 l 56 0 l 222 0 l 289 0 l 350 0 l 456 0 l 889 0 l 889 167 z "},"M":{"ha":944,"x_min":0,"x_max":0,"o":"m 756 500 l 889 500 l 889 667 l 722 833 l 556 833 l 556 667 l 389 667 l 389 833 l 222 833 l 56 667 l 56 500 l 189 500 l 189 400 l 56 267 l 56 0 l 222 0 l 222 500 l 222 667 l 356 667 l 389 633 l 389 0 l 556 0 l 556 633 l 589 667 l 722 667 l 722 0 l 889 0 l 889 267 l 756 400 z "},"N":{"ha":944,"x_min":0,"x_max":0,"o":"m 889 833 l 722 833 l 722 167 l 556 167 l 556 667 l 389 833 l 222 833 l 222 700 l 189 667 l 56 667 l 56 0 l 222 0 l 222 667 l 389 667 l 389 167 l 556 0 l 722 0 l 722 133 l 756 167 l 889 167 z "},"O":{"ha":944,"x_min":0,"x_max":0,"o":"m 722 833 l 656 833 l 594 833 l 489 833 l 360 833 l 322 833 l 222 833 l 222 700 l 189 667 l 56 667 l 56 167 l 222 0 l 722 0 l 722 133 l 756 167 l 889 167 l 889 833 z m 222 167 l 222 667 l 322 667 l 360 667 l 489 667 l 622 800 l 689 800 l 722 767 l 722 167 z "},"P":{"ha":944,"x_min":0,"x_max":0,"o":"m 722 833 l 222 833 l 222 700 l 189 667 l 56 667 l 56 0 l 222 0 l 222 300 l 256 333 l 289 333 l 350 333 l 456 333 l 722 333 l 722 467 l 756 500 l 889 500 l 889 667 z m 722 500 l 456 500 l 322 367 l 222 367 l 222 667 l 722 667 z "},"Q":{"ha":944,"x_min":0,"x_max":0,"o":"m 756 667 l 722 700 l 722 833 l 222 833 l 56 667 l 56 167 l 722 167 l 722 0 l 889 0 l 889 667 z m 722 233 l 689 200 l 622 200 l 489 333 l 222 333 l 222 667 l 722 667 z "},"R":{"ha":944,"x_min":0,"x_max":0,"o":"m 756 500 l 889 500 l 889 667 l 722 833 l 222 833 l 222 700 l 189 667 l 56 667 l 56 0 l 222 0 l 222 300 l 256 333 l 689 333 l 722 300 l 722 0 l 889 0 l 889 167 l 722 333 l 722 467 z m 456 500 l 322 367 l 222 367 l 222 667 l 722 667 l 722 500 z "},"S":{"ha":944,"x_min":0,"x_max":0,"o":"m 222 667 l 889 667 l 889 833 l 222 833 l 222 700 l 189 667 l 56 667 l 56 500 l 222 333 l 722 333 l 722 167 l 56 167 l 56 0 l 722 0 l 722 133 l 756 167 l 889 167 l 889 333 l 722 500 l 456 500 l 322 367 l 256 367 l 222 400 z "},"T":{"ha":944,"x_min":0,"x_max":0,"o":"m 556 833 l 556 700 l 522 667 l 422 667 l 389 700 l 389 833 l 56 833 l 56 667 l 389 667 l 389 0 l 556 0 l 556 667 l 889 667 l 889 833 z "},"U":{"ha":944,"x_min":0,"x_max":0,"o":"m 722 833 l 722 567 l 722 529 l 722 400 l 856 267 l 856 167 l 89 167 l 89 267 l 222 400 l 222 529 l 222 567 l 222 833 l 56 833 l 56 567 l 56 529 l 56 400 l 56 294 l 56 233 l 56 167 l 56 0 l 889 0 l 889 167 l 889 233 l 889 294 l 889 400 l 889 529 l 889 567 l 889 833 z "},"V":{"ha":944,"x_min":0,"x_max":0,"o":"m 722 833 l 722 167 l 656 167 l 556 167 l 389 167 l 289 167 l 222 167 l 222 833 l 56 833 l 56 167 l 189 167 l 222 133 l 256 133 l 389 0 l 556 0 l 689 133 l 722 133 l 756 167 l 889 167 l 889 833 z "},"W":{"ha":944,"x_min":0,"x_max":0,"o":"m 889 167 l 889 833 l 722 833 l 722 167 l 556 167 l 556 233 l 556 294 l 556 400 l 556 667 l 389 667 l 389 400 l 522 267 l 522 200 l 489 167 l 222 167 l 222 833 l 56 833 l 56 167 l 189 167 l 222 133 l 222 0 l 722 0 l 722 133 l 756 167 z "},"X":{"ha":944,"x_min":0,"x_max":0,"o":"m 722 500 l 889 667 l 889 833 l 722 833 l 722 533 l 689 500 l 256 500 l 222 533 l 222 833 l 56 833 l 56 667 l 222 500 l 222 333 l 56 167 l 56 0 l 222 0 l 222 300 l 256 333 l 689 333 l 722 300 l 722 0 l 889 0 l 889 167 l 722 333 z "},"Y":{"ha":944,"x_min":0,"x_max":0,"o":"m 889 833 l 722 833 l 722 500 l 656 500 l 556 500 l 389 500 l 289 500 l 222 500 l 222 833 l 56 833 l 56 500 l 189 500 l 222 467 l 256 467 l 389 333 l 389 0 l 556 0 l 556 333 l 689 467 l 722 467 l 756 500 l 889 500 z "},"Z":{"ha":944,"x_min":0,"x_max":0,"o":"m 222 333 l 722 333 l 889 500 l 889 833 l 56 833 l 56 667 l 489 667 l 622 800 l 722 800 l 722 500 l 222 500 l 56 333 l 56 0 l 889 0 l 889 167 l 456 167 l 322 33 l 222 33 z "},"\\":{"ha":818,"x_min":0,"x_max":0,"o":"m 644 13 l 763 131 l 174 721 l 56 603 z "},"_":{"ha":944,"x_min":0,"x_max":0,"o":"m 56 0 l 889 0 l 889 167 l 56 167 z "},"a":{"ha":944,"x_min":0,"x_max":0,"o":"m 756 667 l 722 700 l 722 833 l 222 833 l 222 700 l 189 667 l 56 667 l 56 0 l 222 0 l 222 300 l 256 333 l 689 333 l 722 300 l 722 0 l 889 0 l 889 667 z m 722 500 l 456 500 l 322 367 l 222 367 l 222 667 l 722 667 z "},"b":{"ha":944,"x_min":0,"x_max":0,"o":"m 756 500 l 889 500 l 889 667 l 722 833 l 222 833 l 222 700 l 189 667 l 56 667 l 56 167 l 189 167 l 222 133 l 222 0 l 722 0 l 889 167 l 889 333 l 756 333 l 722 367 l 722 467 z m 722 167 l 222 167 l 222 300 l 256 333 l 722 333 z m 456 500 l 322 367 l 222 367 l 222 667 l 722 667 l 722 500 z "},"c":{"ha":944,"x_min":0,"x_max":0,"o":"m 889 500 l 889 667 l 722 833 l 222 833 l 222 700 l 189 667 l 56 667 l 56 167 l 189 167 l 222 133 l 222 0 l 722 0 l 889 167 l 722 167 l 701 167 l 222 167 l 222 667 l 722 667 l 722 500 z "},"d":{"ha":944,"x_min":0,"x_max":0,"o":"m 722 833 l 56 833 l 56 0 l 722 0 l 722 133 l 756 167 l 889 167 l 889 667 z m 722 167 l 122 167 l 89 200 l 89 267 l 222 400 l 222 667 l 722 667 z "},"e":{"ha":944,"x_min":0,"x_max":0,"o":"m 889 667 l 889 833 l 222 833 l 222 700 l 189 667 l 56 667 l 56 167 l 192 167 l 222 136 l 222 0 l 889 0 l 889 167 l 225 167 l 222 167 l 222 300 l 256 333 l 289 333 l 350 333 l 456 333 l 722 333 l 722 500 l 456 500 l 322 367 l 222 367 l 222 667 z "},"f":{"ha":944,"x_min":0,"x_max":0,"o":"m 889 667 l 889 833 l 222 833 l 222 700 l 189 667 l 56 667 l 56 0 l 222 0 l 222 300 l 256 333 l 289 333 l 350 333 l 456 333 l 722 333 l 722 500 l 456 500 l 322 367 l 222 367 l 222 667 z "},"g":{"ha":944,"x_min":0,"x_max":0,"o":"m 322 500 l 322 333 l 489 333 l 622 467 l 689 467 l 722 433 l 722 167 l 222 167 l 222 667 l 889 667 l 722 833 l 222 833 l 222 700 l 189 667 l 56 667 l 56 167 l 189 167 l 222 133 l 222 0 l 722 0 l 889 167 l 889 500 z "},"h":{"ha":944,"x_min":0,"x_max":0,"o":"m 889 833 l 722 833 l 722 500 l 456 500 l 322 367 l 222 367 l 222 833 l 56 833 l 56 0 l 222 0 l 222 300 l 256 333 l 689 333 l 722 300 l 722 0 l 889 0 z "},"i":{"ha":944,"x_min":0,"x_max":0,"o":"m 589 667 l 889 667 l 889 833 l 556 833 l 556 667 l 389 667 l 389 833 l 56 833 l 56 667 l 356 667 l 389 633 l 389 200 l 356 167 l 56 167 l 56 0 l 389 0 l 389 167 l 556 167 l 556 0 l 889 0 l 889 167 l 589 167 l 556 200 l 556 633 z "},"j":{"ha":944,"x_min":0,"x_max":0,"o":"m 56 833 l 56 667 l 522 667 l 522 567 l 389 433 l 389 167 l 222 167 l 222 333 l 56 333 l 56 167 l 189 167 l 222 133 l 222 0 l 389 0 l 556 167 l 556 433 l 556 539 l 556 600 l 556 633 l 589 667 l 889 667 l 889 833 z "},"k":{"ha":944,"x_min":0,"x_max":0,"o":"m 722 500 l 889 667 l 889 833 l 722 833 l 722 533 l 689 500 l 456 500 l 322 367 l 222 367 l 222 833 l 56 833 l 56 0 l 222 0 l 222 300 l 256 333 l 689 333 l 722 300 l 722 0 l 889 0 l 889 167 l 722 333 z "},"l":{"ha":944,"x_min":0,"x_max":0,"o":"m 456 167 l 322 33 l 256 33 l 222 67 l 222 833 l 56 833 l 56 0 l 222 0 l 289 0 l 350 0 l 456 0 l 889 0 l 889 167 z "},"m":{"ha":944,"x_min":0,"x_max":0,"o":"m 756 500 l 889 500 l 889 667 l 722 833 l 556 833 l 556 667 l 389 667 l 389 833 l 222 833 l 56 667 l 56 500 l 189 500 l 189 400 l 56 267 l 56 0 l 222 0 l 222 500 l 222 667 l 356 667 l 389 633 l 389 0 l 556 0 l 556 633 l 589 667 l 722 667 l 722 0 l 889 0 l 889 267 l 756 400 z "},"n":{"ha":944,"x_min":0,"x_max":0,"o":"m 889 833 l 722 833 l 722 167 l 556 167 l 556 667 l 389 833 l 222 833 l 222 700 l 189 667 l 56 667 l 56 0 l 222 0 l 222 667 l 389 667 l 389 167 l 556 0 l 722 0 l 722 133 l 756 167 l 889 167 z "},"o":{"ha":944,"x_min":0,"x_max":0,"o":"m 722 833 l 656 833 l 594 833 l 489 833 l 360 833 l 322 833 l 222 833 l 222 700 l 189 667 l 56 667 l 56 167 l 222 0 l 722 0 l 722 133 l 756 167 l 889 167 l 889 833 z m 222 167 l 222 667 l 322 667 l 360 667 l 489 667 l 622 800 l 689 800 l 722 767 l 722 167 z "},"p":{"ha":944,"x_min":0,"x_max":0,"o":"m 722 833 l 222 833 l 222 700 l 189 667 l 56 667 l 56 0 l 222 0 l 222 300 l 256 333 l 289 333 l 350 333 l 456 333 l 722 333 l 722 467 l 756 500 l 889 500 l 889 667 z m 722 500 l 456 500 l 322 367 l 222 367 l 222 667 l 722 667 z "},"q":{"ha":944,"x_min":0,"x_max":0,"o":"m 756 667 l 722 700 l 722 833 l 222 833 l 56 667 l 56 167 l 722 167 l 722 0 l 889 0 l 889 667 z m 722 233 l 689 200 l 622 200 l 489 333 l 222 333 l 222 667 l 722 667 z "},"r":{"ha":944,"x_min":0,"x_max":0,"o":"m 756 500 l 889 500 l 889 667 l 722 833 l 222 833 l 222 700 l 189 667 l 56 667 l 56 0 l 222 0 l 222 300 l 256 333 l 689 333 l 722 300 l 722 0 l 889 0 l 889 167 l 722 333 l 722 467 z m 456 500 l 322 367 l 222 367 l 222 667 l 722 667 l 722 500 z "},"s":{"ha":944,"x_min":0,"x_max":0,"o":"m 222 667 l 889 667 l 889 833 l 222 833 l 222 700 l 189 667 l 56 667 l 56 500 l 222 333 l 722 333 l 722 167 l 56 167 l 56 0 l 722 0 l 722 133 l 756 167 l 889 167 l 889 333 l 722 500 l 456 500 l 322 367 l 256 367 l 222 400 z "},"t":{"ha":944,"x_min":0,"x_max":0,"o":"m 556 833 l 556 700 l 522 667 l 422 667 l 389 700 l 389 833 l 56 833 l 56 667 l 389 667 l 389 0 l 556 0 l 556 667 l 889 667 l 889 833 z "},"u":{"ha":944,"x_min":0,"x_max":0,"o":"m 722 833 l 722 567 l 722 529 l 722 400 l 856 267 l 856 167 l 89 167 l 89 267 l 222 400 l 222 529 l 222 567 l 222 833 l 56 833 l 56 567 l 56 529 l 56 400 l 56 294 l 56 233 l 56 167 l 56 0 l 889 0 l 889 167 l 889 233 l 889 294 l 889 400 l 889 529 l 889 567 l 889 833 z "},"v":{"ha":944,"x_min":0,"x_max":0,"o":"m 722 833 l 722 167 l 656 167 l 556 167 l 389 167 l 289 167 l 222 167 l 222 833 l 56 833 l 56 167 l 189 167 l 222 133 l 256 133 l 389 0 l 556 0 l 689 133 l 722 133 l 756 167 l 889 167 l 889 833 z "},"w":{"ha":944,"x_min":0,"x_max":0,"o":"m 889 167 l 889 833 l 722 833 l 722 167 l 556 167 l 556 233 l 556 294 l 556 400 l 556 667 l 389 667 l 389 400 l 522 267 l 522 200 l 489 167 l 222 167 l 222 833 l 56 833 l 56 167 l 189 167 l 222 133 l 222 0 l 722 0 l 722 133 l 756 167 z "},"x":{"ha":944,"x_min":0,"x_max":0,"o":"m 722 500 l 889 667 l 889 833 l 722 833 l 722 533 l 689 500 l 256 500 l 222 533 l 222 833 l 56 833 l 56 667 l 222 500 l 222 333 l 56 167 l 56 0 l 222 0 l 222 300 l 256 333 l 689 333 l 722 300 l 722 0 l 889 0 l 889 167 l 722 333 z "},"y":{"ha":944,"x_min":0,"x_max":0,"o":"m 889 833 l 722 833 l 722 500 l 656 500 l 556 500 l 389 500 l 289 500 l 222 500 l 222 833 l 56 833 l 56 500 l 189 500 l 222 467 l 256 467 l 389 333 l 389 0 l 556 0 l 556 333 l 689 467 l 722 467 l 756 500 l 889 500 z "},"z":{"ha":944,"x_min":0,"x_max":0,"o":"m 222 333 l 722 333 l 889 500 l 889 833 l 56 833 l 56 667 l 489 667 l 622 800 l 722 800 l 722 500 l 222 500 l 56 333 l 56 0 l 889 0 l 889 167 l 456 167 l 322 33 l 222 33 z "},"|":{"ha":278,"x_min":0,"x_max":0,"o":"m 56 -167 l 222 -167 l 222 1000 l 56 1000 z "},"~":{"ha":1171,"x_min":0,"x_max":0,"o":"m 997 543 l 763 308 l 526 543 l 292 543 l 56 308 l 174 190 l 408 425 l 644 190 l 879 190 l 1115 425 z "},"¢":{"ha":943,"x_min":0,"x_max":0,"o":"m 722 500 l 889 500 l 889 667 l 722 833 l 556 833 l 556 1000 l 389 1000 l 389 833 l 222 833 l 222 700 l 189 667 l 56 667 l 56 167 l 189 167 l 222 133 l 222 0 l 389 0 l 389 -167 l 556 -167 l 556 0 l 722 0 l 889 167 l 222 167 l 222 667 l 722 667 z "},"£":{"ha":943,"x_min":0,"x_max":0,"o":"m 256 250 l 889 250 l 889 375 l 264 375 l 389 500 l 389 667 l 556 667 l 556 500 l 722 500 l 722 667 l 556 833 l 389 833 l 389 700 l 356 667 l 222 667 l 222 375 l 56 375 l 56 250 l 222 250 l 222 200 l 189 167 l 56 167 l 56 0 l 889 0 l 889 167 l 256 167 z "},"«":{"ha":819,"x_min":0,"x_max":0,"o":"m 765 603 l 647 721 l 411 485 l 411 249 l 647 13 l 765 131 l 529 367 z m 410 603 l 292 721 l 56 485 l 56 249 l 292 13 l 410 131 l 174 367 z "},"±":{"ha":610,"x_min":0,"x_max":0,"o":"m 389 667 l 389 833 l 222 833 l 222 667 l 56 667 l 56 500 l 222 500 l 222 333 l 389 333 l 389 500 l 556 500 l 556 667 z m 56 0 l 556 0 l 556 167 l 56 167 z "},"»":{"ha":819,"x_min":0,"x_max":0,"o":"m 56 131 l 174 13 l 410 249 l 410 485 l 174 721 l 56 603 l 292 367 z m 411 131 l 529 13 l 765 249 l 765 485 l 529 721 l 411 603 l 647 367 z "},"×":{"ha":582,"x_min":0,"x_max":0,"o":"m 526 299 l 410 417 l 526 535 l 410 653 l 292 535 l 174 653 l 56 535 l 174 417 l 56 299 l 174 181 l 292 299 l 410 181 z "},"‘":{"ha":278,"x_min":0,"x_max":0,"o":"m 222 667 l 56 833 l 56 500 l 222 500 z "},"’":{"ha":278,"x_min":0,"x_max":0,"o":"m 56 667 l 222 500 l 222 833 l 56 833 z "},"“":{"ha":611,"x_min":0,"x_max":0,"o":"m 222 667 l 56 833 l 56 500 l 222 500 z m 556 667 l 389 833 l 389 500 l 556 500 z "},"”":{"ha":611,"x_min":0,"x_max":0,"o":"m 556 833 l 389 833 l 389 667 l 556 500 z m 222 833 l 56 833 l 56 667 l 222 500 z "},"€":{"ha":1026,"x_min":0,"x_max":0,"o":"m 972 667 l 972 833 l 306 833 l 306 700 l 272 667 l 139 667 l 139 583 l 56 583 l 56 458 l 139 458 l 139 375 l 56 375 l 56 250 l 139 250 l 139 167 l 275 167 l 306 136 l 306 0 l 972 0 l 972 167 l 308 167 l 306 167 l 306 250 l 972 250 l 972 375 l 306 375 l 306 458 l 972 458 l 972 583 l 306 583 l 306 667 z "},"₹":{"ha":943,"x_min":0,"x_max":0,"o":"m 722 667 l 889 667 l 889 833 l 56 833 l 56 667 l 522 667 l 556 633 l 556 583 l 56 583 l 56 458 l 522 458 l 556 425 l 556 233 l 522 200 l 456 200 l 322 333 l 156 333 l 156 167 l 322 0 l 656 0 l 489 167 l 722 167 l 722 458 l 889 458 l 889 583 l 722 583 z "}}}
